<svg width="180" height="46" viewBox="0 0 180 46" fill="none" xmlns="http://www.w3.org/2000/svg">
<rect x="0.03125" y="0.767578" width="179.969" height="36.1206" rx="10.1391" fill="#64656A"/>
<path d="M17.6413 24.4743V14.3853H20.1031V15.269H18.7144V23.58H20.1031V24.4743H17.6413ZM25.5 15.1322C25.5 16.6682 27.1411 18.12 28.9506 18.4461L28.4877 19.2772C26.9833 18.9511 25.5947 17.9622 24.9845 16.6366C24.3638 17.9517 22.9804 18.9406 21.4707 19.2772L21.0288 18.4461C22.8173 18.1095 24.4479 16.6682 24.4479 15.1322V14.4169H25.5V15.1322ZM29.3399 21.1499V21.981H20.7132V21.1499H29.3399ZM38.1769 13.7962V23.2224H37.2196V13.7962H38.1769ZM36.3148 14.0066V22.7384H35.368V18.2252H34.1897V17.331H35.368V14.0066H36.3148ZM34.4422 14.9534V15.774H33.7163V19.9821C34.0372 19.9611 34.3475 19.9242 34.6316 19.8874L34.7052 20.6133C33.2114 20.9079 31.2546 20.95 30.0342 20.95L29.9185 20.1083C30.192 20.1083 30.5076 20.1083 30.8443 20.0978V15.774H30.1184V14.9534H34.4422ZM31.749 20.0873C32.0909 20.0768 32.4434 20.0663 32.7905 20.0452V15.774H31.749V20.0873ZM47.1508 13.8067V20.6554H46.1513V13.8067H47.1508ZM47.4348 22.2124V23.0225H40.9859V19.9611H41.9958V22.2124H47.4348ZM42.0379 14.4379C43.4581 14.4379 44.5417 15.4058 44.5417 16.7734C44.5417 18.1621 43.4581 19.1194 42.0379 19.1194C40.6177 19.1194 39.5235 18.1621 39.5235 16.7734C39.5235 15.4058 40.6177 14.4379 42.0379 14.4379ZM42.0379 15.3111C41.1542 15.3111 40.5019 15.9107 40.5019 16.7734C40.5019 17.6571 41.1542 18.2462 42.0379 18.2462C42.9006 18.2462 43.5633 17.6571 43.5633 16.7734C43.5633 15.9107 42.9006 15.3111 42.0379 15.3111ZM53.8312 14.501C54.6886 14.501 55.3987 14.9955 55.8195 15.8476H58.1445V13.7962H59.1334V23.2434H58.1445V19.6244H55.8826C55.4776 20.5712 54.7359 21.1183 53.8312 21.1183C52.4214 21.1183 51.4325 19.8348 51.4431 17.8044C51.4325 15.7845 52.4214 14.501 53.8312 14.501ZM53.8312 15.3952C52.979 15.3952 52.3899 16.321 52.3899 17.8044C52.3899 19.2983 52.979 20.2241 53.8312 20.2241C54.6833 20.2241 55.2724 19.2983 55.2724 17.8044C55.2724 16.321 54.6833 15.3952 53.8312 15.3952ZM56.1035 16.6682C56.1719 17.0154 56.2193 17.3941 56.2193 17.8044C56.2193 18.1621 56.1877 18.4935 56.1246 18.8038H58.1445V16.6682H56.1035ZM68.6227 13.7962V19.7401H67.6759V17.1101H66.5818V19.414H65.6455V13.975H66.5818V16.2895H67.6759V13.7962H68.6227ZM65.2983 14.8692V15.6582H60.5326V14.8692H62.4368V13.8698H63.4257V14.8692H65.2983ZM62.9207 16.1001C64.12 16.1001 64.9616 16.7418 64.9616 17.7202C64.9616 18.6986 64.12 19.3404 62.9207 19.3404C61.7424 19.3404 60.9008 18.6986 60.9008 17.7202C60.9008 16.7418 61.7424 16.1001 62.9207 16.1001ZM62.9207 16.8365C62.2579 16.8365 61.795 17.1837 61.795 17.7202C61.795 18.2568 62.2579 18.6145 62.9207 18.6145C63.6045 18.6145 64.0569 18.2568 64.0569 17.7202C64.0569 17.1837 63.6045 16.8365 62.9207 16.8365ZM65.4666 19.8769C67.4655 19.8769 68.6648 20.4766 68.6753 21.5496C68.6648 22.6017 67.4655 23.2118 65.4666 23.2013C63.4678 23.2118 62.2684 22.6017 62.279 21.5496C62.2684 20.4766 63.4678 19.8769 65.4666 19.8769ZM65.4666 20.6449C64.0674 20.6449 63.2574 20.9605 63.2679 21.5496C63.2574 22.1177 64.0674 22.4438 65.4666 22.4333C66.8763 22.4438 67.6654 22.1177 67.6759 21.5496C67.6654 20.9605 66.8763 20.6449 65.4666 20.6449ZM72.2733 24.4743H69.8115V23.58H71.2002V15.269H69.8115V14.3853H72.2733V24.4743ZM85.0028 21.2445V22.0967H76.3762V21.2445H80.1635V19.2352H77.1336V18.4461H78.5434V15.4794H77.1126V14.6693H84.2138V15.4794H82.7725V18.4461H84.1823V19.2352H81.1524V21.2445H85.0028ZM79.5323 18.4461H81.7941V15.4794H79.5323V18.4461ZM90.5891 14.7535C90.5786 17.5309 89.7265 20.0031 86.2863 21.6969L85.7393 20.95C87.4435 20.1136 88.4588 19.0984 89.0216 17.8991L85.9391 18.1936L85.7919 17.331L89.3267 17.089C89.4687 16.6103 89.5529 16.1001 89.5897 15.5636H86.2863V14.7535H90.5891ZM93.0298 13.7962V17.5624H94.4922V18.383H93.0298V23.2118H92.0304V13.7962H93.0298ZM100.899 16.1948C100.889 17.8675 101.856 19.5718 103.266 20.2556L102.645 21.0552C101.62 20.5239 100.825 19.4666 100.415 18.2042C99.989 19.5508 99.1632 20.6764 98.0901 21.234L97.4694 20.4239C98.9212 19.7296 99.8996 17.9201 99.8996 16.1948V14.5852H100.899V16.1948ZM104.97 13.7962V17.5519H106.485V18.404H104.97V23.2224H103.971V13.7962H104.97ZM114.565 14.7009V15.6267C114.565 16.7944 114.565 18.099 114.207 20.0242L113.197 19.919C113.565 18.099 113.565 16.7629 113.565 15.6267V15.511H107.842V14.7009H114.565ZM115.533 21.1183V21.9494H106.938V21.1183H110.209V17.7939H111.198V21.1183H115.533ZM126.695 13.8067V19.0353H125.695V13.8067H126.695ZM122.308 15.0586C122.297 16.3105 123.213 17.4572 124.654 17.8991L124.17 18.6881C123.06 18.3304 122.234 17.5887 121.803 16.6261C121.377 17.6624 120.535 18.4777 119.404 18.8564L118.91 18.0674C120.383 17.5835 121.287 16.3631 121.287 15.0586V14.1433H122.308V15.0586ZM126.758 19.5508V20.3503H125.517V22.2966H126.853V23.1066H120.288V22.2966H121.635V20.3503H120.372V19.5508H126.758ZM122.623 22.2966H124.528V20.3503H122.623V22.2966ZM130.745 14.501C132.023 14.501 132.96 15.5846 133.112 17.331H135.058V13.7962H136.047V23.2434H135.058V18.141H133.123C133.012 19.9768 132.055 21.1183 130.745 21.1183C129.335 21.1183 128.347 19.8348 128.357 17.8044C128.347 15.7845 129.335 14.501 130.745 14.501ZM130.745 15.3952C129.893 15.3952 129.304 16.321 129.304 17.8044C129.304 19.2983 129.893 20.2241 130.745 20.2241C131.597 20.2241 132.186 19.2983 132.186 17.8044C132.186 16.321 131.597 15.3952 130.745 15.3952ZM146.126 21.213V22.0441H137.499V21.213H139.561V18.7512C138.788 18.3251 138.32 17.6466 138.32 16.805C138.32 15.3216 139.772 14.3432 141.791 14.3432C143.822 14.3432 145.274 15.3216 145.274 16.805C145.274 17.6361 144.821 18.3041 144.064 18.7302V21.213H146.126ZM141.791 15.1428C140.308 15.1428 139.288 15.7845 139.288 16.805C139.288 17.8149 140.308 18.4777 141.791 18.4777C143.264 18.4777 144.306 17.8149 144.306 16.805C144.306 15.7845 143.264 15.1428 141.791 15.1428ZM140.55 21.213H143.054V19.1089C142.67 19.2089 142.244 19.2562 141.791 19.2562C141.35 19.2562 140.929 19.2089 140.55 19.1194V21.213ZM148.545 14.7114L148.451 20.1294H147.409L147.315 14.7114H148.545ZM147.935 22.4018C147.525 22.4018 147.178 22.0651 147.188 21.6548C147.178 21.2445 147.525 20.9079 147.935 20.9079C148.335 20.9079 148.682 21.2445 148.682 21.6548C148.682 22.0651 148.335 22.4018 147.935 22.4018ZM152.038 23.0822H162.811V12.3094H152.038V23.0822Z" fill="white"/>
<path d="M147.05 45.125L140.464 35.6196L153.636 35.6196L147.05 45.125Z" fill="#64656A"/>
</svg>
