<svg width="244" height="45" viewBox="0 0 244 45" fill="none" xmlns="http://www.w3.org/2000/svg">
<path d="M0.976 7.82H22.816V35.42H0.976V7.82ZM7.84 29.564H16.048V13.676H7.84V29.564ZM35.728 14.54H42.544V20.924H35.728V36.284H28.72V-0.00400066H35.728V14.54ZM61.7313 25.292H54.6753V19.1H44.7393V12.86H54.6753V9.452H42.2913V3.116H61.7313V10.94H66.5313V2.396H73.1553V25.772H66.5313V17.18H61.7313V25.292ZM81.7473 40.46L76.7073 44.684L66.8673 35.9L57.0273 44.684L52.0353 40.46L66.8673 27.356L81.7473 40.46ZM82.8513 -0.00400066V28.7H76.1313V-0.00400066H82.8513ZM117.73 16.46H90.37V11.084H94.594V6.236H90.37V0.571998H117.73V6.236H113.458V11.084H117.73V16.46ZM107.026 11.084V6.236H101.026V11.084H107.026ZM118.786 44.444H91.378V32.636H109.57V31.1H92.626V25.964H116.386V37.772H98.146V39.26H118.786V44.444ZM121.906 18.572V24.38H86.146V18.572H121.906ZM145.969 35.42H125.281V17.756H135.745V12.62H126.625V6.38H142.513V23.996H132.049V29.18H145.969V35.42ZM148.561 2.3H155.233V36.284H148.561V22.7H144.241V16.364H148.561V2.3ZM164.881 -0.00400066V36.284H158.161V-0.00400066H164.881ZM180.394 26.3C181.098 26.3 181.786 26.14 182.458 25.82C183.162 25.5 183.77 25.068 184.282 24.524C184.762 24.012 185.146 23.372 185.434 22.604C185.754 21.836 185.914 21.036 185.914 20.204C185.914 19.372 185.754 18.588 185.434 17.852C185.146 17.084 184.762 16.428 184.282 15.884C183.77 15.372 183.162 14.956 182.458 14.636C181.786 14.316 181.098 14.156 180.394 14.156C179.658 14.156 178.954 14.316 178.282 14.636C177.642 14.956 177.082 15.372 176.602 15.884C176.09 16.428 175.674 17.084 175.354 17.852C175.066 18.588 174.922 19.372 174.922 20.204C174.922 21.036 175.066 21.836 175.354 22.604C175.674 23.372 176.09 24.012 176.602 24.524C177.082 25.068 177.642 25.5 178.282 25.82C178.954 26.14 179.658 26.3 180.394 26.3ZM180.394 7.484C182.058 7.484 183.626 7.82 185.098 8.492C186.602 9.132 187.914 10.028 189.034 11.18C190.09 12.364 190.938 13.724 191.578 15.26C192.218 16.796 192.538 18.444 192.538 20.204C192.538 21.964 192.218 23.628 191.578 25.196C190.938 26.732 190.09 28.092 189.034 29.276C187.914 30.428 186.602 31.34 185.098 32.012C183.626 32.652 182.058 32.972 180.394 32.972C178.698 32.972 177.114 32.652 175.642 32.012C174.202 31.34 172.938 30.428 171.85 29.276C170.73 28.092 169.85 26.732 169.21 25.196C168.57 23.628 168.25 21.964 168.25 20.204C168.25 18.444 168.57 16.796 169.21 15.26C169.85 13.724 170.73 12.364 171.85 11.18C172.938 10.028 174.202 9.132 175.642 8.492C177.114 7.82 178.698 7.484 180.394 7.484ZM204.538 36.284H197.53V-0.00400066H204.538V36.284ZM214.881 26.444L209.697 21.74L225.777 2.3L241.857 21.74L236.625 26.444L225.777 13.292L214.881 26.444ZM243.633 29.9V36.284H207.873V29.9H243.633Z" fill="white"/>
</svg>
