<svg width="136" height="45" viewBox="0 0 136 45" fill="none" xmlns="http://www.w3.org/2000/svg">
<rect y="0.164062" width="135.606" height="36.1206" rx="10.1391" fill="#04B8FF"/>
<path d="M29.2405 13.1907V22.6169H28.2832V13.1907H29.2405ZM21.0136 20.0184C22.3497 19.2136 23.0283 17.4988 23.0335 15.8208V15.0633H21.2977V14.2532H25.611V15.0633H23.9909V15.8208C23.9909 17.4304 24.6431 19.0452 25.9687 19.808L25.369 20.5444C24.4696 20.0078 23.8541 19.0452 23.5227 17.909C23.1861 19.1399 22.5443 20.192 21.6238 20.7653L21.0136 20.0184ZM24.9167 17.3462V16.5256H26.379V13.3906H27.3258V22.1435H26.379V17.3462H24.9167ZM41.7176 20.6391V21.4912H33.0909V20.6391H36.8783V18.6297H33.8484V17.8407H35.2581V14.8739H33.8274V14.0639H40.9286V14.8739H39.4873V17.8407H40.897V18.6297H37.8672V20.6391H41.7176ZM36.247 17.8407H38.5089V14.8739H36.247V17.8407ZM47.3039 14.148C47.2934 16.9307 46.4412 19.3977 43.0011 21.0914L42.454 20.3445C44.1583 19.5081 45.1735 18.4929 45.7311 17.2989L42.6539 17.5882L42.5066 16.7255L46.0414 16.4888C46.1835 16.0049 46.2624 15.4946 46.2992 14.9581H43.0011V14.148H47.3039ZM48.7452 22.6064V13.1907H49.7446V16.957H51.2069V17.7775H49.7446V22.6064H48.7452ZM59.1182 13.2012V15.5052H60.4963V16.3363H59.1182V18.8717H58.1188V13.2012H59.1182ZM52.0906 14.5794V13.7693H56.3829V16.4099H53.1006V17.5566C54.7365 17.5566 55.8937 17.4935 57.2666 17.262L57.3718 18.0721C55.9148 18.3299 54.6681 18.3877 52.8586 18.3772H52.1011V15.6419H55.4045V14.5794H52.0906ZM52.9007 20.8705C52.9007 19.7764 54.1053 19.1241 56.0673 19.1241C58.003 19.1241 59.2023 19.7764 59.2023 20.8705C59.2023 21.9646 58.003 22.5958 56.0673 22.5958C54.1053 22.5958 52.9007 21.9646 52.9007 20.8705ZM53.8791 20.8705C53.8738 21.4859 54.6839 21.8384 56.0673 21.8279C57.4297 21.8384 58.2292 21.4859 58.224 20.8705C58.2292 20.2603 57.4297 19.9079 56.0673 19.9132C54.6839 19.9079 53.8738 20.2603 53.8791 20.8705ZM71.3112 14.0954V15.1054C71.3007 16.2889 71.3007 17.5303 70.9641 19.3345L69.9857 19.2293C70.3171 17.5251 70.3171 16.2626 70.3118 15.1054V14.9055H64.5361V14.0954H71.3112ZM63.6524 21.3439V20.5128H65.6829V17.4619H66.6823V20.5128H68.0394V17.4619H69.0178V20.5128H72.2475V21.3439H63.6524ZM80.3797 13.1907V16.4204H81.7263V17.2515H80.3797V20.5549H79.3803V13.1907H80.3797ZM72.8998 18.7244C73.6257 18.7244 74.4726 18.7244 75.3615 18.6928V18.0353C74.2885 17.909 73.6047 17.3935 73.6152 16.6203C73.6047 15.705 74.5041 15.158 75.856 15.1685C77.2079 15.158 78.0916 15.705 78.0968 16.6203C78.0916 17.3935 77.4235 17.909 76.361 18.03V18.6455C77.2026 18.5981 78.0547 18.5192 78.8438 18.3982L78.9279 19.1031C76.9186 19.4818 74.6514 19.5081 73.005 19.5239L72.8998 18.7244ZM73.1418 14.8003V14.0639H75.3615V13.1591H76.361V14.0639H78.5808V14.8003H73.1418ZM74.2885 22.417V20.0604H75.2879V21.6069H80.7164V22.417H74.2885ZM74.562 16.6203C74.562 17.0779 75.0512 17.3672 75.856 17.3672C76.6503 17.3672 77.1447 17.0779 77.1395 16.6203C77.1447 16.1311 76.6503 15.8471 75.856 15.8523C75.0512 15.8471 74.562 16.1311 74.562 16.6203ZM86.9339 14.7477V15.5578H82.2523V14.7477H84.1039V13.4642H85.0928V14.7477H86.9339ZM82.5574 18.293C82.5522 17.0253 83.4148 16.1259 84.5984 16.1259C85.7924 16.1259 86.6446 17.0253 86.6498 18.293C86.6446 19.5818 85.7924 20.4865 84.5984 20.4813C83.4148 20.4865 82.5522 19.5818 82.5574 18.293ZM83.4411 18.293C83.4359 19.0926 83.9198 19.6291 84.5984 19.6291C85.2769 19.6291 85.7661 19.0926 85.7661 18.293C85.7661 17.5093 85.2769 16.9622 84.5984 16.957C83.9198 16.9622 83.4359 17.5093 83.4411 18.293ZM87.3652 22.175V13.4011H88.312V17.1148H89.3956V13.1907H90.3425V22.6169H89.3956V17.9353H88.312V22.175H87.3652ZM100.211 20.6075V21.4386H91.5839V20.6075H93.6458V18.1458C92.8726 17.7197 92.3992 17.0464 92.4044 16.1995C92.3992 14.7161 93.8563 13.743 95.8762 13.7377C97.9013 13.743 99.3584 14.7161 99.3584 16.1995C99.3584 17.0306 98.906 17.6986 98.1485 18.1247V20.6075H100.211ZM93.3723 16.1995C93.3723 17.2094 94.398 17.867 95.8762 17.8722C97.3437 17.867 98.3852 17.2094 98.3905 16.1995C98.3852 15.1843 97.3437 14.5373 95.8762 14.5373C94.398 14.5373 93.3723 15.1843 93.3723 16.1995ZM94.6348 20.6075H97.1386V18.514C96.7546 18.6034 96.3285 18.6507 95.8762 18.6507C95.4343 18.6507 95.0135 18.6034 94.6348 18.514V20.6075ZM103.177 22.4768H113.95V11.704H103.177V22.4768Z" fill="black"/>
<path d="M29.1496 44.5234L22.564 35.018L35.7351 35.018L29.1496 44.5234Z" fill="#04B8FF"/>
</svg>
