<svg width="24" height="24" viewBox="0 0 24 24" fill="none" xmlns="http://www.w3.org/2000/svg">
<g clip-path="url(#clip0_1_4875)">
<path d="M12 18.1923C12.3718 18.1923 12.6907 18.0625 12.9567 17.8029C13.2227 17.5432 13.3653 17.2243 13.3846 16.8461H10.6154C10.6346 17.2243 10.7772 17.5432 11.0433 17.8029C11.3093 18.0625 11.6282 18.1923 12 18.1923ZM7.38462 15.5769H16.6153V13.9615H15.6153V11.3038C15.6153 10.3705 15.3721 9.51985 14.8855 8.7519C14.399 7.98397 13.7192 7.49615 12.8461 7.28845V5.76923H11.1538V7.28845C10.2808 7.49615 9.60096 7.98077 9.11443 8.7423C8.62789 9.50383 8.38462 10.3513 8.38462 11.2846V13.9615H7.38462V15.5769ZM9.99998 13.9615V10.8846C9.99998 10.3346 10.1958 9.86374 10.5875 9.47208C10.9791 9.08041 11.45 8.88458 12 8.88458C12.55 8.88458 13.0208 9.08041 13.4125 9.47208C13.8041 9.86374 14 10.3346 14 10.8846V13.9615H9.99998ZM12.0016 21.5C10.6877 21.5 9.45268 21.2506 8.29655 20.752C7.1404 20.2533 6.13472 19.5765 5.2795 18.7217C4.42427 17.8669 3.74721 16.8616 3.24833 15.706C2.74944 14.5504 2.5 13.3156 2.5 12.0017C2.5 10.6877 2.74933 9.45268 3.248 8.29655C3.74667 7.1404 4.42342 6.13472 5.27825 5.2795C6.1331 4.42427 7.13834 3.74721 8.29398 3.24833C9.44959 2.74944 10.6844 2.5 11.9983 2.5C13.3122 2.5 14.5473 2.74933 15.7034 3.248C16.8596 3.74667 17.8652 4.42342 18.7205 5.27825C19.5757 6.1331 20.2527 7.13834 20.7516 8.29398C21.2505 9.44959 21.5 10.6844 21.5 11.9983C21.5 13.3122 21.2506 14.5473 20.752 15.7034C20.2533 16.8596 19.5765 17.8652 18.7217 18.7205C17.8669 19.5757 16.8616 20.2527 15.706 20.7516C14.5504 21.2505 13.3156 21.5 12.0016 21.5ZM12 20C14.2333 20 16.125 19.225 17.675 17.675C19.225 16.125 20 14.2333 20 12C20 9.76664 19.225 7.87498 17.675 6.32498C16.125 4.77498 14.2333 3.99998 12 3.99998C9.76664 3.99998 7.87498 4.77498 6.32498 6.32498C4.77498 7.87498 3.99998 9.76664 3.99998 12C3.99998 14.2333 4.77498 16.125 6.32498 17.675C7.87498 19.225 9.76664 20 12 20Z" fill="white"/>
<circle cx="20" cy="4" r="4" fill="#FF483D"/>
<path d="M19.638 6.084C18.936 6.084 18.462 5.826 18.15 5.466L18.57 4.908C18.834 5.166 19.152 5.37 19.554 5.37C20.01 5.37 20.316 5.142 20.316 4.746C20.316 4.308 20.058 4.038 19.092 4.038V3.402C19.908 3.402 20.172 3.126 20.172 2.73C20.172 2.382 19.956 2.172 19.578 2.172C19.26 2.172 19.002 2.322 18.738 2.568L18.288 2.022C18.672 1.692 19.098 1.482 19.614 1.482C20.472 1.482 21.054 1.902 21.054 2.664C21.054 3.138 20.79 3.492 20.316 3.672V3.702C20.82 3.846 21.204 4.212 21.204 4.8C21.204 5.616 20.49 6.084 19.638 6.084Z" fill="white"/>
</g>
<defs>
<clipPath id="clip0_1_4875">
<rect width="24" height="24" fill="white"/>
</clipPath>
</defs>
</svg>
