<svg width="33" height="32" viewBox="0 0 33 32" fill="none" xmlns="http://www.w3.org/2000/svg">
<g clip-path="url(#clip0_6892_22018)">
<path fill-rule="evenodd" clip-rule="evenodd" d="M27.0001 16.2508C27.0011 15.496 26.9328 14.7428 26.7961 14H16.2217V18.2549H22.2628C22.1374 18.9273 21.8743 19.5677 21.4894 20.1376C21.1045 20.7076 20.6057 21.1952 20.0232 21.571V24.3316H23.6502C25.7725 22.4166 26.997 19.5959 26.997 16.2487L27.0001 16.2508Z" fill="#3E82F1"/>
<path fill-rule="evenodd" clip-rule="evenodd" d="M16.2252 26.9977C19.2558 26.9977 21.7968 26.0133 23.6537 24.3335L20.0267 21.5729C19.0211 22.233 17.7352 22.6236 16.2252 22.6236C13.3014 22.6236 10.827 20.6879 9.94507 18.0879H6.19434V20.9387C7.12867 22.7607 8.56157 24.2923 10.3329 25.3623C12.1043 26.4322 14.1444 26.9985 16.2252 26.9977Z" fill="#32A753"/>
<path fill-rule="evenodd" clip-rule="evenodd" d="M9.94452 18.0886C9.47501 16.7335 9.47501 15.2645 9.94452 13.9094V11.0586H6.19378C5.40878 12.5919 5 14.2836 5 15.999C5 17.7144 5.40878 19.4062 6.19378 20.9394L9.94452 18.0886Z" fill="#F9BB00"/>
<path fill-rule="evenodd" clip-rule="evenodd" d="M16.225 9.37409C17.8736 9.37409 19.3529 9.92953 20.5161 11.0197L23.735 7.86425C21.7914 6.08912 19.2504 5 16.2271 5C14.1463 4.99924 12.1063 5.56548 10.3349 6.63546C8.56352 7.70545 7.13062 9.23702 6.19629 11.0591L9.94703 13.9098C10.8289 11.3098 13.3033 9.37409 16.2271 9.37409H16.225Z" fill="#E74133"/>
</g>
<defs>
<clipPath id="clip0_6892_22018">
<rect width="22" height="22" fill="white" transform="translate(5 5)"/>
</clipPath>
</defs>
</svg>
